<svg width="20" height="35" viewBox="0 0 20 35" fill="none" xmlns="http://www.w3.org/2000/svg">
<path d="M1.67684 22.8378C1.73476 22.8378 1.79345 22.8343 1.85252 22.827C2.41079 22.7581 2.85155 22.373 3.02117 21.8739C2.04833 20.7553 1.5552 19.2947 1.5552 17.5119C1.5552 16.044 1.89393 14.5321 2.51592 13.1263H2.943C2.31147 14.4978 1.94217 16.0128 1.94217 17.5119C1.94217 22.2528 5.62793 23.9364 9.66093 23.9364C13.6939 23.9364 17.3797 22.2528 17.3797 17.5119C17.3797 16.0128 17.0104 14.4978 16.3789 13.1263H16.8058C17.4279 14.5321 17.7665 16.044 17.7665 17.5119C17.7665 19.2947 17.2733 20.7553 16.3006 21.8739C16.4702 22.3729 16.9109 22.7581 17.4692 22.827C17.5283 22.8343 17.5868 22.8378 17.6448 22.8378C18.3509 22.8378 18.9625 22.3113 19.0511 21.5927C19.7824 15.6693 19.0288 11.3056 16.811 8.62246C15.4723 7.00287 13.971 6.45995 13.1677 6.27872C12.3994 7.39371 11.1143 8.1265 9.66067 8.1265C8.20708 8.1265 6.92196 7.39371 6.15369 6.27872C5.35034 6.45995 3.84903 7.00287 2.51024 8.62246C0.292778 11.3055 -0.460911 15.6693 0.270462 21.5927C0.359207 22.3114 0.970749 22.8378 1.67684 22.8378Z" fill="#2C4059"/>
<path d="M3.26044 22.1328L5.50667 33.46C5.50667 34.3106 6.35852 35 7.40901 35C8.46002 35 9.31213 34.3104 9.31213 33.46V24.3184C7.18805 24.2675 5.3791 23.7518 4.06482 22.8174C3.77059 22.6081 3.50333 22.3791 3.26044 22.1328Z" fill="#2C4059"/>
<path d="M10.0095 24.3184V33.46C10.0095 34.3106 10.8616 35 11.9124 35C12.9631 35 13.8152 34.3104 13.8152 33.46L16.0612 22.1328C15.8183 22.3793 15.551 22.6082 15.2566 22.8174C13.9425 23.7518 12.1335 24.2675 10.0095 24.3184Z" fill="#2C4059"/>
<path d="M9.66084 7.7394C11.798 7.7394 13.5305 6.00687 13.5305 3.8697C13.5305 1.73252 11.798 0 9.66084 0C7.52366 0 5.79114 1.73252 5.79114 3.8697C5.79114 6.00687 7.52366 7.7394 9.66084 7.7394Z" fill="#2C4059"/>
</svg>
