<svg width="23" height="35" viewBox="0 0 23 35" fill="none" xmlns="http://www.w3.org/2000/svg">
<path d="M21.7055 27.8041C21.4764 27.3825 19.5216 23.8052 16.3774 21.9283C15.8217 21.628 15.2375 21.3839 14.6334 21.1995L14.4043 20.2347C15.2906 20.7125 16.2625 21.0108 17.2643 21.1124C17.7206 21.1665 18.1798 21.1932 18.6393 21.1926C19.5376 21.1926 21.1074 21.0826 21.5405 20.3951C21.6219 20.2689 21.6639 20.1212 21.661 19.971C21.6582 19.8208 21.6106 19.6749 21.5245 19.5518C19.7324 16.8018 19.6912 13.7539 19.6407 11.0726C19.6132 9.33322 19.588 7.83217 19.077 6.6955C18.5977 5.58708 17.8001 4.64592 16.7853 3.99132C16.4141 2.52006 14.9978 1.17026 13.082 0.478176C10.2953 -0.532453 7.29777 0.0748409 4.85026 2.14881C1.57774 5.00653 0.475445 8.90009 1.18357 10.2224C1.22969 10.309 1.29101 10.3866 1.36462 10.4516C2.02691 14.1389 1.60295 17.3816 0.0675269 20.0926C0.00176804 20.2097 -0.0168253 20.3475 0.0155426 20.4778C0.0479104 20.6081 0.128799 20.7212 0.241694 20.7939C1.80038 21.8011 3.62014 22.3294 5.47588 22.3133C5.61797 22.3133 5.76234 22.3133 5.90901 22.3133C3.08567 24.087 0.867322 27.0089 0.571696 29.4175C0.418153 30.6527 0.800864 31.6129 1.66712 32.1927C3.23921 33.24 6.63318 35 11.7161 35C16.2559 35 19.2787 33.3683 20.9974 32.0002C21.6159 31.5139 22.0311 30.8147 22.162 30.0389C22.2929 29.2632 22.1302 28.4664 21.7055 27.8041ZM4.8113 15.5139L4.77692 15.436L4.67151 15.4795L4.76317 15.4039C4.57826 14.9219 4.44087 14.423 4.35296 13.9143C4.14056 12.6673 4.03324 11.4048 4.03213 10.1399C4.04817 9.99093 4.0665 9.84197 4.08713 9.68155C5.52401 8.88634 7.13047 8.13238 9.12882 7.95592L9.43819 7.93529H9.48632H9.73382H10.1922H10.3526H10.4122H10.5497H10.6894H10.7422L10.9117 7.95134L11.1088 7.97425L11.2761 7.99488L11.487 8.02925L11.6451 8.05675L11.7597 8.07967L11.8697 8.10259L12.0186 8.13238L12.1722 8.16905L12.2867 8.19655L12.399 8.22404L12.6672 8.29967L12.7886 8.33405C12.9193 8.373 13.0522 8.41655 13.192 8.46467C13.2378 8.48071 13.2859 8.49446 13.3386 8.50821H13.3707L13.499 8.53113H13.5197C13.5708 8.53376 13.6221 8.53376 13.6732 8.53113C13.7236 8.53113 13.774 8.53113 13.8359 8.53113C13.8978 8.53113 13.9368 8.53113 13.9872 8.5105L13.978 8.44405L14.0284 8.54946C14.072 8.54946 14.1132 8.53113 14.1568 8.51738C14.2294 8.49603 14.3006 8.47 14.3699 8.43946L14.3859 8.49905V8.52196C14.4038 8.58125 14.4252 8.63941 14.4501 8.69613V8.72134C14.4739 8.77474 14.5007 8.82676 14.5303 8.87717L14.5486 8.90467C14.5761 8.94745 14.6052 8.98947 14.6357 9.03072L14.6541 9.05363C14.6884 9.09717 14.7228 9.13842 14.7595 9.17967L14.7824 9.20488L14.897 9.32176L15.0116 9.42718L15.1445 9.54405C15.2407 9.62655 15.3347 9.70905 15.4195 9.79384C15.5651 9.92942 15.6809 10.0937 15.7598 10.2763C15.8387 10.459 15.8789 10.656 15.8778 10.8549C15.8814 10.9317 15.9017 11.0067 15.9373 11.0748C15.9729 11.1429 16.023 11.2024 16.0841 11.2491C16.1831 11.323 16.3043 11.361 16.4278 11.3568C16.4617 11.3559 16.4954 11.352 16.5286 11.3453H16.5836C16.6595 11.3577 16.7369 11.3577 16.8128 11.3453C16.8487 11.3538 16.8834 11.3669 16.9159 11.3843L16.9343 11.398C17.008 11.4545 17.0586 11.536 17.0764 11.6272C17.223 12.2459 16.618 13.5247 15.3622 14.5926C15.3185 14.6298 15.2814 14.6739 15.2522 14.7232L15.188 14.8309C14.5807 15.8118 13.8405 17.0562 12.949 17.888C12.9214 17.9064 12.896 17.9279 12.8734 17.9522C11.794 18.8437 10.5817 19.2653 9.35111 19.1714C8.79371 19.1271 8.24957 18.9787 7.74694 18.7337C7.08805 18.3803 6.49562 17.915 5.9961 17.3587C5.51383 16.8044 5.11472 16.183 4.8113 15.5139ZM7.80652 25.9822C6.64006 26.3558 5.74401 26.2252 5.41172 25.6362C5.07942 25.0472 5.36818 24.236 6.08318 23.6081C6.53788 23.2317 7.03375 22.908 7.56131 22.6433C7.5408 23.1669 7.68858 23.6833 7.98298 24.1168C8.40612 24.7235 9.05043 25.1398 9.77736 25.2764C9.25028 25.4987 8.59027 25.7347 7.81569 25.9822H7.80652ZM11.5786 32.6465C11.4463 32.6465 11.3169 32.6072 11.2068 32.5337C11.0968 32.4601 11.011 32.3556 10.9604 32.2334C10.9097 32.1111 10.8965 31.9765 10.9223 31.8467C10.9481 31.7169 11.0119 31.5977 11.1054 31.5041C11.199 31.4105 11.3183 31.3468 11.4481 31.321C11.5779 31.2951 11.7124 31.3084 11.8347 31.359C11.957 31.4097 12.0615 31.4955 12.135 31.6055C12.2085 31.7156 12.2478 31.8449 12.2478 31.9773C12.2478 32.1532 12.1786 32.322 12.055 32.4472C11.9315 32.5725 11.7637 32.644 11.5878 32.6465H11.5786ZM11.5786 30.5152C11.4463 30.5152 11.3169 30.4759 11.2068 30.4024C11.0968 30.3289 11.011 30.2244 10.9604 30.1021C10.9097 29.9798 10.8965 29.8453 10.9223 29.7155C10.9481 29.5857 11.0119 29.4664 11.1054 29.3728C11.199 29.2793 11.3183 29.2155 11.4481 29.1897C11.5779 29.1639 11.7124 29.1771 11.8347 29.2278C11.957 29.2784 12.0615 29.3642 12.135 29.4742C12.2085 29.5843 12.2478 29.7137 12.2478 29.846C12.2478 30.0219 12.1786 30.1908 12.055 30.316C11.9315 30.4412 11.7637 30.5128 11.5878 30.5152H11.5786ZM11.5786 28.141C11.4463 28.141 11.3169 28.1018 11.2068 28.0282C11.0968 27.9547 11.011 27.8502 10.9604 27.7279C10.9097 27.6056 10.8965 27.4711 10.9223 27.3413C10.9481 27.2115 11.0119 27.0923 11.1054 26.9987C11.199 26.9051 11.3183 26.8413 11.4481 26.8155C11.5779 26.7897 11.7124 26.803 11.8347 26.8536C11.957 26.9043 12.0615 26.99 12.135 27.1001C12.2085 27.2101 12.2478 27.3395 12.2478 27.4718C12.2478 27.6477 12.1786 27.8166 12.055 27.9418C11.9315 28.067 11.7637 28.1386 11.5878 28.141H11.5786ZM11.5076 24.3368C10.1326 24.3368 9.2159 24.0435 8.87444 23.4958C8.56506 22.9962 8.77361 22.3499 8.87444 22.1208L9.49319 21.6006C9.5205 21.5757 9.54508 21.5481 9.56653 21.5181L9.58257 21.4951C9.60779 21.4567 9.62782 21.4151 9.64215 21.3714C9.65352 21.338 9.6612 21.3034 9.66507 21.2683C9.66565 21.2568 9.66565 21.2453 9.66507 21.2339C9.67018 21.192 9.67018 21.1497 9.66507 21.1079L9.50007 20.2393C10.785 20.2741 12.0451 19.8806 13.082 19.121L13.6755 21.7358C13.6951 21.8146 13.7326 21.8878 13.7851 21.9498C13.8375 22.0118 13.9035 22.0609 13.978 22.0933L14.7274 22.4302C14.5846 22.7896 14.3816 23.1221 14.127 23.4133C13.8603 23.6683 13.5342 23.8526 13.1782 23.9495C12.638 24.1312 12.0816 24.2609 11.5167 24.3368H11.5076ZM18.103 25.4575C18.0091 25.815 17.5828 26.0006 17.2414 26.0945C16.3659 26.3237 14.3745 25.572 13.3088 25.1183C13.7871 24.959 14.23 24.7084 14.6128 24.3804C14.7196 24.2988 14.8178 24.2066 14.9061 24.1054L14.9863 24.0068L15.0024 23.9885C15.2829 23.6583 15.5074 23.2844 15.667 22.8816C16.3401 23.2274 16.9611 23.6664 17.5118 24.1856C17.9839 24.6347 18.2039 25.1114 18.103 25.4575Z" fill="#2C4059"/>
</svg>
