<svg xmlns="http://www.w3.org/2000/svg" viewBox="0 0 64 80" x="0px" y="0px"><title>1</title><path d="M51.5293,57.00879,49.04779,44.71484c-.61633-3.61535-3.49023-12.1231-4.50482-15.76562a2.92324,2.92324,0,0,1,.11639-1.76093c3.67011-10.02478.75879-14.7052-.99139-16.19677V4a1,1,0,0,0-2,0v6.47028a7.23,7.23,0,0,0-5.73926,3.394,2.81036,2.81036,0,0,1-1.58594,1.18164,5.415,5.415,0,0,0-2.34887,1.493,5.2817,5.2817,0,0,0-2.33472-1.47931,2.84418,2.84418,0,0,1-1.584-1.18945A7.19926,7.19926,0,0,0,22.332,10.47089V4a1,1,0,0,0-2,0v6.99872c-1.751,1.49414-4.66113,6.15082-.99023,16.19073a2.91108,2.91108,0,0,1,.12787,1.7157c-1.02137,3.6225-3.893,12.17786-4.52924,15.80579L12.4707,57.00977a.99959.99959,0,0,0,.77539,1.17578,14.04171,14.04171,0,0,0,4.11914.21386,1.94921,1.94921,0,0,1,1.43165.4043,8.8047,8.8047,0,0,0,7.29882.873,3.68246,3.68246,0,0,1,2.85938.61035,7.64311,7.64311,0,0,0,3.03082.71136L31.99316,61l.00635-.00049L32.00586,61l.00708-.00146a7.52621,7.52621,0,0,0,3.033-.72406,3.65883,3.65883,0,0,1,2.915-.58112,8.71274,8.71274,0,0,0,7.21191-.88477,2.04411,2.04411,0,0,1,1.44336-.41113,14.12406,14.12406,0,0,0,4.1377-.21191A.99984.99984,0,0,0,51.5293,57.00879ZM46.88672,56.416a3.89838,3.89838,0,0,0-2.73828.6748,6.73491,6.73491,0,0,1-5.61133.68359,4.48493,4.48493,0,0,0-3.31543.21381,7.718,7.718,0,0,1-3.22711,1.00909,7.55471,7.55471,0,0,1-3.2182-1.01,4.56894,4.56894,0,0,0-3.36817-.18457,6.7996,6.7996,0,0,1-5.56054-.70111c-1.42084-1.16186-3.60755-.42364-5.21094-.72076L16.90039,45.1084c.63947-3.55853,3.49237-12.09326,4.49609-15.667a4.92838,4.92838,0,0,0-.18261-2.95606c-3.56836-9.49023-.39356-13.24707.48242-14.05664a5.26,5.26,0,0,1,4.6875,2.50781,4.88832,4.88832,0,0,0,2.68945,2.03516,3.62239,3.62239,0,0,1,2.01758,1.67963.92631.92631,0,0,0,1.08295.52746,1.90589,1.90589,0,0,0,.50262-.24884,2.03188,2.03188,0,0,0,.25434-.34747,3.68486,3.68486,0,0,1,1.99115-1.62152,4.80757,4.80757,0,0,0,2.69824-2.03028,5.25624,5.25624,0,0,1,4.68164-2.50195c.88965.82324,4.0459,4.583.48535,14.05567a4.94719,4.94719,0,0,0-.1709,3.001l3.22852,10.664c1.11859,3.37506,2.70782,12.6272,3.51757,16.23151A10.42717,10.42717,0,0,1,46.88672,56.416Z"/><path d="M40.377,25.49518c-1.049-.083-4.42785.25262-5.34668-.32819a6.79609,6.79609,0,0,0-5.94726-.0791,3.35719,3.35719,0,0,1-1.56446.40723H23.12311a1.00022,1.00022,0,0,0-.00006,2.00006c1.92743-.10407,5.15753.36871,6.80468-.59381a4.80366,4.80366,0,0,1,4.209.05468,5.14136,5.14136,0,0,0,2.28516.53907H40.377A1.00016,1.00016,0,0,0,40.377,25.49518Z"/><path d="M30.31152,22.44629a4.76951,4.76951,0,0,0,1.68726-.4939,4.763,4.763,0,0,0,1.6897.4939,1.00146,1.00146,0,0,0,.14257-1.98926,3.29428,3.29428,0,0,1-.87109-.25488,2.91329,2.91329,0,0,0-.18268-.33569,3.50163,3.50163,0,0,0-.38488-.294,2.6687,2.6687,0,0,0-.477-.073,1.92349,1.92349,0,0,0-.36994.10535,1.96427,1.96427,0,0,0-.283.21515,2.94518,2.94518,0,0,0-.20434.32623c-.11377.18512-.52625.22156-.83.30133A1.00219,1.00219,0,0,0,30.31152,22.44629Z"/><text x="0" y="79" fill="#000000" font-size="5px" font-weight="bold" font-family="'Helvetica Neue', Helvetica, Arial-Unicode, Arial, Sans-serif">Created by sentya irma</text><text x="0" y="84" fill="#000000" font-size="5px" font-weight="bold" font-family="'Helvetica Neue', Helvetica, Arial-Unicode, Arial, Sans-serif">from the Noun Project</text></svg>