<svg width="30" height="30" viewBox="0 0 30 30" fill="none" xmlns="http://www.w3.org/2000/svg">
<path d="M0 8.37209C0 3.74831 3.74831 0 8.37209 0H21.6279C26.2517 0 30 3.74831 30 8.37209V21.6279C30 26.2517 26.2517 30 21.6279 30H8.37209C3.74831 30 0 26.2517 0 21.6279V8.37209Z" fill="#FEB400"/>
<path fill-rule="evenodd" clip-rule="evenodd" d="M6.97668 9.06971C6.97668 8.49174 7.25301 8.02319 7.59386 8.02319H22.406C22.7469 8.02319 23.0232 8.49174 23.0232 9.06971C23.0232 9.64767 22.7469 10.1162 22.406 10.1162H7.59386C7.25301 10.1162 6.97668 9.64767 6.97668 9.06971Z" fill="#2C4059"/>
<path fill-rule="evenodd" clip-rule="evenodd" d="M4.18604 15.3488C4.18604 14.7708 4.55847 14.3022 5.01787 14.3022H24.982C25.4415 14.3022 25.8139 14.7708 25.8139 15.3488C25.8139 15.9267 25.4415 16.3953 24.982 16.3953H5.01787C4.55847 16.3953 4.18604 15.9267 4.18604 15.3488Z" fill="#2C4059"/>
<path fill-rule="evenodd" clip-rule="evenodd" d="M6.97668 21.6281C6.97668 21.0501 7.25301 20.5815 7.59386 20.5815H22.406C22.7469 20.5815 23.0232 21.0501 23.0232 21.6281C23.0232 22.206 22.7469 22.6746 22.406 22.6746H7.59386C7.25301 22.6746 6.97668 22.206 6.97668 21.6281Z" fill="#2C4059"/>
</svg>
