<svg width="35" height="31" viewBox="0 0 35 31" fill="none" xmlns="http://www.w3.org/2000/svg">
<path d="M32.4362 2.97832C30.8643 2.05803 28.7848 1.55152 26.5806 1.55152C25.4367 1.55152 24.335 1.68533 23.2994 1.94967L23.1856 1.66715C22.8689 0.881752 22.0617 0.415605 21.2236 0.534506L12.5642 1.75914C11.2974 0.663587 9.64662 0 7.84421 0C3.86051 0 0.619659 3.24085 0.619659 7.22455C0.619659 9.54801 1.72249 11.6184 3.43145 12.9409L0.246232 18.4579C0.00115945 18.8822 -0.063563 19.3775 0.0637002 19.8523C0.190963 20.3272 0.494577 20.7235 0.918909 20.9686L15.6414 29.4687C15.9236 29.6316 16.2374 29.7149 16.5556 29.7149C16.7155 29.7149 16.877 29.6938 17.0359 29.6512C17.438 29.5436 17.7835 29.3087 18.0285 28.9818C19.1634 29.7243 20.5185 30.1567 21.973 30.1567C25.9567 30.1567 29.1975 26.9158 29.1975 22.9321C29.1975 20.1287 27.5926 17.6932 25.2531 16.4962L27.1071 13.2848C27.3751 12.8209 27.4286 12.2962 27.2624 11.7951C29.2106 11.7017 31.0272 11.2104 32.4358 10.3858C34.0895 9.41784 35 8.10267 35 6.68241C35 5.26215 34.0895 3.94661 32.4362 2.97832ZM1.59195 7.22455C1.59195 3.77681 4.39683 0.972291 7.84421 0.972291C11.2916 0.972291 14.0968 3.77681 14.0968 7.22455C14.0968 10.6723 11.292 13.4772 7.84457 13.4772C4.39719 13.4772 1.59195 10.6719 1.59195 7.22455ZM16.6396 18.0641L9.87424 14.1582C10.5975 13.9462 11.2741 13.6241 11.8846 13.2106L18.1304 16.8166C17.5791 17.1645 17.0773 17.5845 16.6396 18.0641ZM16.7839 28.7117C16.5599 28.7717 16.3268 28.7415 16.1272 28.6262L1.40505 20.1265C1.2058 20.0112 1.0629 19.8247 1.0029 19.6007C0.942907 19.3767 0.973087 19.1433 1.08835 18.944L4.24048 13.4844C5.30185 14.0979 6.53267 14.4495 7.84457 14.4495C8.03074 14.4495 8.21509 14.4426 8.39762 14.4284L16.0276 18.8335C15.6596 19.3655 15.3611 19.9491 15.1455 20.5712L6.56249 15.6159C6.45086 15.5516 6.31814 15.5341 6.19379 15.5672C6.06907 15.6007 5.9629 15.6821 5.89854 15.7937L4.49973 18.2168C4.36556 18.4492 4.44519 18.7466 4.67754 18.8808L15.0059 24.844C15.3902 26.2424 16.1847 27.4729 17.2519 28.3961C17.1366 28.5499 16.9741 28.6611 16.7839 28.7117ZM14.7786 23.5902L5.58474 18.2819L6.49777 16.7009L14.8833 21.5424C14.7953 21.9922 14.7488 22.4569 14.7488 22.9321C14.7484 23.1539 14.759 23.3735 14.7786 23.5902ZM28.2252 22.9321C28.2252 26.3795 25.4204 29.1844 21.973 29.1844C18.5256 29.1844 15.7207 26.3795 15.7207 22.9321C15.7207 19.4847 18.5256 16.6798 21.973 16.6798C25.4207 16.6795 28.2252 19.4844 28.2252 22.9321ZM26.2654 12.7983L24.3532 16.1104C23.6074 15.8497 22.8067 15.7072 21.9733 15.7072C20.972 15.7072 20.0175 15.9123 19.1495 16.2821L12.7071 12.5627C13.1649 12.1453 13.5692 11.6697 13.9078 11.1479L21.2258 15.373C21.3025 15.417 21.3857 15.4381 21.4683 15.4381C21.6363 15.4381 21.7995 15.3509 21.8897 15.1949C22.0239 14.9625 21.9442 14.6651 21.7119 14.5309L14.3812 10.2985C14.8219 9.36512 15.0688 8.32301 15.0688 7.22419C15.0688 5.47668 14.4448 3.87207 13.4085 2.62126L21.3592 1.49734C21.7603 1.44098 22.1319 1.65515 22.2831 2.03076L25.8254 10.8188C24.0779 10.7196 22.4628 10.2767 21.2156 9.54656C20.8549 9.33567 20.5385 9.10768 20.2676 8.86697C20.9352 8.37028 21.3683 7.5758 21.3683 6.68205C21.3683 5.18107 20.1473 3.96007 18.6463 3.96007C17.1453 3.96007 15.9243 5.18107 15.9243 6.68205C15.9243 8.18303 17.1453 9.40403 18.6463 9.40403C18.8827 9.40403 19.1125 9.37348 19.3314 9.31676C19.7102 9.70546 20.1764 10.0647 20.7247 10.3858C22.2115 11.2563 24.1528 11.7558 26.2243 11.8075L26.3188 12.042C26.4232 12.3016 26.4054 12.5562 26.2654 12.7983ZM19.1325 6.68205C19.1325 6.18136 19.2954 5.69339 19.6164 5.22652C20.0862 5.54068 20.3964 6.07555 20.3964 6.68205C20.3964 7.28891 20.0858 7.82451 19.6153 8.1383C19.2983 7.67579 19.1325 7.18383 19.1325 6.68205ZM18.6496 8.43173C18.6485 8.43173 18.6474 8.43173 18.6463 8.43173C17.6817 8.43173 16.8966 7.6467 16.8966 6.68205C16.8966 5.71739 17.6817 4.93236 18.6463 4.93236C18.6489 4.93236 18.6514 4.93272 18.6543 4.93272C18.33 5.48904 18.1605 6.08318 18.1605 6.68241C18.1602 7.29109 18.3282 7.8805 18.6496 8.43173ZM31.945 9.54656C30.5901 10.3396 28.8016 10.793 26.8806 10.8359L23.6663 2.8616C24.587 2.63798 25.564 2.52345 26.5803 2.52345C28.6147 2.52345 30.5196 2.98305 31.945 3.81717C33.2885 4.60366 34.0281 5.62104 34.0281 6.68168C34.0281 7.74269 33.2881 8.76007 31.945 9.54656ZM18.9739 25.2432L24.6171 19.6C24.8073 19.4102 25.1149 19.4102 25.3047 19.6C25.4945 19.7898 25.4945 20.0978 25.3047 20.2876L19.6615 25.9308C19.5666 26.0257 19.4423 26.073 19.3179 26.073C19.1935 26.073 19.0692 26.0253 18.9743 25.9308C18.7841 25.741 18.7841 25.4334 18.9739 25.2432ZM21.5621 20.7341C21.5621 19.7491 20.7607 18.9473 19.7753 18.9473C18.7903 18.9473 17.9885 19.7487 17.9885 20.7341C17.9885 21.7191 18.7899 22.5209 19.7753 22.5209C20.7603 22.5209 21.5621 21.7195 21.5621 20.7341ZM18.9608 20.7341C18.9608 20.285 19.3263 19.9196 19.7753 19.9196C20.2244 19.9196 20.5898 20.285 20.5898 20.7341C20.5898 21.1831 20.2244 21.5486 19.7753 21.5486C19.3263 21.5486 18.9608 21.1831 18.9608 20.7341ZM24.1706 23.343C23.1856 23.343 22.3839 24.1444 22.3839 25.1298C22.3839 26.1148 23.1852 26.9165 24.1706 26.9165C25.1556 26.9165 25.9574 26.1151 25.9574 25.1298C25.9574 24.1447 25.156 23.343 24.1706 23.343ZM24.1706 25.9442C23.7216 25.9442 23.3561 25.5788 23.3561 25.1298C23.3561 24.6807 23.7216 24.3153 24.1706 24.3153C24.6197 24.3153 24.9851 24.6807 24.9851 25.1298C24.9851 25.5788 24.6201 25.9442 24.1706 25.9442ZM13.1947 7.22455C13.1947 4.27423 10.7945 1.87441 7.84457 1.87441C4.89461 1.87441 2.49406 4.27423 2.49406 7.22455C2.49406 10.1749 4.89425 12.5747 7.84421 12.5747C10.7942 12.5747 13.1947 10.1745 13.1947 7.22455ZM3.46636 7.22455C3.46636 4.81055 5.43021 2.8467 7.84457 2.8467C10.2589 2.8467 12.2224 4.81055 12.2224 7.22455C12.2224 9.63855 10.2586 11.6028 7.84457 11.6028C5.43057 11.6028 3.46636 9.63855 3.46636 7.22455ZM8.33036 10.6556V10.353C9.10993 10.1392 9.68444 9.42475 9.68444 8.57827C9.68444 8.08303 9.49027 7.61798 9.13793 7.26855C8.90886 7.04129 8.63142 6.88276 8.32999 6.80131V5.15343C8.3769 5.18543 8.42162 5.22252 8.46271 5.26433C8.62597 5.42941 8.71469 5.64285 8.71178 5.86465C8.70851 6.133 8.92377 6.35334 9.19211 6.35625C9.19393 6.35625 9.19611 6.35625 9.19793 6.35625C9.46373 6.35625 9.6808 6.14245 9.68371 5.87592C9.68953 5.39232 9.50118 4.93236 9.15393 4.58075C8.92122 4.34513 8.63797 4.18041 8.32963 4.09569V3.79317C8.32963 3.52483 8.11183 3.30703 7.84348 3.30703C7.57514 3.30703 7.35734 3.52483 7.35734 3.79317V4.09569C6.57776 4.3095 6.00326 5.02399 6.00326 5.87047C6.00326 6.36571 6.19742 6.83076 6.54976 7.18019C6.77884 7.40745 7.05627 7.56598 7.3577 7.64743V9.29567C7.3108 9.26331 7.26607 9.22658 7.22498 9.18477C7.06172 9.01969 6.973 8.80625 6.97591 8.58445C6.97918 8.31611 6.76393 8.09576 6.49558 8.09249C6.49377 8.09249 6.49158 8.09249 6.48977 8.09249C6.22397 8.09249 6.00689 8.30629 6.00362 8.57281C5.99817 9.05641 6.18615 9.51638 6.5334 9.86799C6.76611 10.1036 7.04936 10.2683 7.3577 10.353V10.6556C7.3577 10.9239 7.5755 11.1417 7.84385 11.1417C8.11292 11.1417 8.33036 10.9243 8.33036 10.6556ZM8.45362 7.95904C8.62052 8.12448 8.71251 8.34447 8.71251 8.57863C8.71251 8.87716 8.56088 9.14114 8.33072 9.29749V7.85796C8.37399 7.88741 8.41544 7.92123 8.45362 7.95904ZM7.23516 6.4897C7.06827 6.32425 6.97627 6.10427 6.97627 5.87011C6.97627 5.57158 7.1279 5.3076 7.35843 5.15125V6.59078C7.3148 6.56133 7.27334 6.52788 7.23516 6.4897Z" fill="#2C4059"/>
</svg>
