<svg width="45" height="34" viewBox="0 0 45 34" fill="none" xmlns="http://www.w3.org/2000/svg">
<path d="M44.9634 25.9711C44.759 24.1437 43.8832 22.5672 43.7216 22.2895C43.0305 19.906 42.1511 17.2813 40.861 15.7289C40.8084 15.3959 40.6378 15.0808 40.3691 14.8156C40.6896 14.4684 40.8789 14.0381 40.8789 13.5721C40.8789 12.7874 40.353 12.0946 39.5299 11.7384C40.2396 10.6743 41.0369 9.21824 41.0369 7.33101C41.0369 4.12255 38.7594 0.524861 34.9462 0.0579653C32.8446 -0.200033 30.8893 0.413271 29.7153 1.69701C29.1296 2.3362 28.8457 3.05039 28.9171 3.68154C28.6904 4.0306 28.0913 5.05991 28.0377 6.26688C27.9877 7.40868 28.3708 8.73973 28.5377 9.25751L27.0485 10.7064C26.9458 10.8064 26.9128 10.9573 26.9637 11.0903C26.9851 11.1456 27.2164 11.7393 27.5967 12.4499C27.5967 12.4508 27.5976 12.4517 27.5985 12.4526C28.0976 13.3846 28.8529 14.5157 29.7287 14.8951C30.2956 15.1406 30.9554 15.2183 31.5652 15.2183C31.9152 15.2183 32.2473 15.1924 32.5375 15.1575C31.6036 16.3717 30.8126 17.8652 30.6858 18.1107C30.6367 18.2035 30.6322 18.3133 30.6715 18.4106C30.7349 18.5642 30.8036 18.7142 30.876 18.8615C30.542 19.2864 29.5564 20.4362 28.1011 21.2656C27.9529 21.3504 27.7913 21.4334 27.619 21.5147C27.4378 21.3513 27.1476 21.1049 26.8057 20.8755V13.5631C26.8057 13.3658 26.6459 13.206 26.4486 13.206H20.981C20.7837 13.206 20.6239 13.3658 20.6239 13.5631V20.5068L18.0982 17.6366L18.1732 17.5581C18.2937 17.4322 18.3053 17.2376 18.2018 17.0974C17.3706 15.9815 16.401 15.0361 15.3171 14.2791C15.9912 13.7363 16.3501 13.0953 16.4331 12.5606C16.6099 11.4224 15.9296 10.385 15.6528 10.019L15.9385 8.40942C16.0849 8.58172 16.226 8.76027 16.3608 8.94506C16.434 9.04326 16.5528 9.09861 16.6742 9.08968C16.7956 9.08165 16.9054 9.01112 16.9634 8.9031C17.4768 7.95235 17.5438 6.85697 17.1643 5.63929L19.407 5.73928C19.541 5.74553 19.6695 5.675 19.7347 5.55716C19.8008 5.43932 19.7945 5.29381 19.7186 5.18222C19.5981 5.00278 16.6947 0.789109 12.1861 0.464156C8.04168 0.165093 4.83296 1.57917 3.60089 4.24753C2.65363 6.29634 3.28395 8.39425 3.51608 9.02898C3.37234 9.25751 3.26252 9.51283 3.19288 9.78601C3.042 10.3779 3.09646 10.9876 3.34734 11.5027C3.60714 12.0384 4.04551 12.4079 4.58208 12.5454C4.91063 12.6293 5.249 12.6186 5.57666 12.5169C5.64898 12.6427 5.74897 12.8007 5.87664 12.9766C5.29989 13.1864 4.34906 13.5997 3.63036 14.2532C2.54739 15.2406 1.89743 17.0608 1.86975 17.1376C1.83493 17.2385 1.84565 17.3492 1.901 17.4402C2.04921 17.6875 2.21973 17.9179 2.4099 18.133C2.20366 18.7401 1.68941 20.5335 2.07599 22.3833C2.2242 23.0903 2.58935 23.6983 3.02682 24.2027C2.6706 24.4803 2.07331 24.9695 1.50281 25.54C0.226108 26.8183 -0.230113 27.8075 0.107365 28.5645C0.406453 29.2358 1.06445 29.4474 1.77422 29.4474C2.68845 29.4474 3.68928 29.0966 4.12854 28.9234C5.42756 29.8866 7.55511 31.2186 9.51838 31.3364C9.6889 31.3463 9.85853 31.3516 10.0273 31.3516C10.8611 31.3516 11.6736 31.2248 12.4539 30.9776V31.7899C12.4539 31.9872 12.6137 32.147 12.811 32.147H28.9761C29.1734 32.147 29.3332 31.9872 29.3332 31.7899V26.9264C29.3332 26.7291 29.1734 26.5693 28.9761 26.5693H26.8057V25.4525C27.7056 25.2784 28.6761 25.0168 29.5778 24.6231C31.6955 23.6983 33.0838 22.2842 33.582 21.72C33.6856 21.7798 33.7909 21.8378 33.8999 21.8932C33.9508 21.92 34.007 21.9333 34.0632 21.9333C34.1436 21.9333 34.2248 21.9057 34.29 21.8521L34.8498 21.3915L35.8917 24.1473L33.0089 25.9408C32.8481 26.0408 32.7937 26.2488 32.8839 26.4148C32.8883 26.422 32.9053 26.4541 32.9365 26.5068C31.1795 27.7521 30.4233 29.101 30.7474 30.4205C31.3206 32.7469 35.931 33.2308 39.6674 33.2308C40.9512 33.2308 42.1324 33.1737 43.01 33.1147C43.6341 33.0719 44.1233 32.5488 44.1233 31.923C44.1233 31.465 43.8689 31.0552 43.4591 30.8535C43.0975 30.6749 42.7752 30.4955 42.5029 30.3205C43.4484 30.0822 44.0644 29.8161 44.0965 29.8018C44.168 29.7706 44.2269 29.717 44.2653 29.6492C44.3028 29.5822 45.1884 27.9789 44.9634 25.9711ZM30.0126 14.2398C29.4493 13.9952 28.8948 13.2659 28.4547 12.5186C29.0484 12.3428 29.576 12.0187 30.0287 11.55C30.1662 11.4081 30.1617 11.1822 30.0198 11.0448C29.8787 10.9082 29.6519 10.9117 29.5153 11.0537C29.1073 11.4768 28.6422 11.7464 28.1011 11.875C27.944 11.5661 27.8136 11.2795 27.7181 11.051L29.1975 9.61282C29.2975 9.51551 29.3314 9.36821 29.2841 9.23609C29.2787 9.22002 28.6948 7.58187 28.752 6.29813C28.7832 5.58573 29.0493 4.92958 29.2716 4.4975C30.1992 5.75981 32.7374 7.31762 33.9615 8.02466C33.8883 8.08804 33.8195 8.15589 33.7552 8.22999C33.6267 8.37907 33.6436 8.60493 33.7936 8.73348C33.9436 8.86204 34.1686 8.84507 34.2972 8.6951C34.5454 8.40675 34.9186 8.2407 35.3203 8.2407C36.0372 8.2407 36.6193 8.77098 36.6193 9.42267C36.6193 10.0753 36.0372 10.6055 35.3203 10.6055C35.1971 10.6055 35.0748 10.5895 34.9578 10.5582C34.7677 10.5082 34.5713 10.6216 34.5213 10.8126C34.4704 11.0028 34.5838 11.1983 34.7748 11.2492C34.9516 11.2956 35.1355 11.3197 35.3203 11.3197C35.365 11.3197 35.4096 11.3179 35.4533 11.3153C35.5926 11.7893 35.8105 12.1812 36.1078 12.4812C35.9221 12.7267 35.8006 13.0025 35.7524 13.29C35.1007 13.3185 34.5382 13.4489 34.0793 13.6828C33.8159 13.8167 33.541 14.0381 33.2678 14.3112C32.8544 14.4032 31.15 14.7317 30.0126 14.2398ZM21.3382 17.8652H26.0914V20.4773C25.5986 20.2648 25.0826 20.1836 24.6621 20.4416C24.4076 20.5978 24.238 20.8228 24.1639 21.096H21.3382V17.8652ZM13.7511 18.7883L15.2814 20.0916C15.3484 20.1488 15.4305 20.1765 15.5126 20.1765C15.6073 20.1765 15.701 20.1399 15.7707 20.0667L15.868 19.9649L16.7929 21.096H15.5126C15.3153 21.096 15.1555 21.2558 15.1555 21.4531V23.4412C14.6922 23.1189 13.9886 22.7359 13.128 22.5966C13.1039 21.3656 13.3092 20.1068 13.7511 18.7883ZM15.8698 21.8101H20.6239V26.5693H15.8698V21.8101ZM20.1909 21.096H17.7152L16.3653 19.4453L17.6027 18.1535L20.1909 21.096ZM5.86593 11.7268C5.82665 11.7125 5.78558 11.7054 5.74451 11.7054C5.68737 11.7054 5.63112 11.7188 5.57934 11.7455C5.3115 11.8848 5.02759 11.9223 4.75796 11.8536C4.42941 11.7688 4.15622 11.534 3.98926 11.1912C3.81249 10.8278 3.77588 10.3913 3.8848 9.96188C3.99462 9.53337 4.23657 9.16824 4.56512 8.93435C4.87671 8.71295 5.22936 8.63707 5.55791 8.72099C5.92932 8.81561 6.23019 9.10575 6.38465 9.5173C6.41947 9.61103 6.49178 9.68602 6.58463 9.72352C6.67748 9.76101 6.78194 9.75744 6.87211 9.71459C8.48451 8.95042 9.57016 7.85326 10.1755 6.37311C10.6879 7.05962 10.9361 7.79523 10.9308 8.60761C10.9299 8.72723 10.9888 8.83883 11.0888 8.90578C11.1879 8.97274 11.3138 8.98523 11.4245 8.9397C12.5334 8.47995 13.2708 7.65328 13.6208 6.48024C14.2413 6.83555 14.8118 7.26406 15.3287 7.76041L14.9216 10.0529C14.9029 10.1592 14.9332 10.2681 15.0028 10.3493C15.0118 10.36 15.8912 11.3929 15.7269 12.4517C15.5546 13.5631 13.819 14.9951 10.4996 14.6996C9.27643 14.5898 8.22292 14.1889 7.36851 13.5078C6.43464 12.7615 6.07663 11.9321 6.07395 11.925C6.03556 11.833 5.96057 11.7607 5.86593 11.7268ZM4.11158 14.7817C4.69279 14.2523 5.47667 13.8934 6.00253 13.6935C5.9436 14.1711 5.95253 14.8353 6.28376 15.4191C6.85337 16.4243 8.55772 16.943 8.74967 16.9992C8.78271 17.0091 8.81663 17.0135 8.84967 17.0135C8.9702 17.0135 9.08537 16.9528 9.15143 16.8466L10.0835 15.37C10.1996 15.3861 10.3174 15.4004 10.4362 15.4111C10.4996 15.4164 10.5621 15.4209 10.6246 15.4254L11.9191 17.01C11.987 17.093 12.0887 17.1403 12.195 17.1403C12.1995 17.1403 12.2048 17.1403 12.2093 17.1403C12.3209 17.1358 12.4244 17.0796 12.4887 16.9876L13.8119 15.0861C14.1297 14.9781 14.4163 14.8504 14.6734 14.7085C15.7099 15.3932 16.642 16.2565 17.4456 17.2849L15.4876 19.3293L14.0127 18.0723C14.1306 17.7715 14.26 17.4661 14.4029 17.1581C14.4859 16.9787 14.4074 16.7671 14.2288 16.6841C14.0493 16.6011 13.8377 16.6788 13.7547 16.8582C12.8289 18.8588 12.3887 20.721 12.4119 22.5368C11.0674 22.5065 9.59337 22.8439 9.14697 22.9546C8.38809 22.6127 7.45244 22.8743 7.08996 23.0002C6.64981 22.7921 5.79093 22.2904 5.56773 21.7227C5.36685 21.2093 5.42935 20.3952 5.5097 19.8729C5.72844 19.9283 5.95432 19.9774 6.18912 20.0193C6.20966 20.0229 6.23108 20.0247 6.25162 20.0247C6.32572 20.0247 6.39804 20.0024 6.45875 19.9586C6.53731 19.9033 6.58999 19.8185 6.60427 19.7229L6.98729 17.2787C7.01764 17.084 6.88461 16.9019 6.68998 16.8707C6.49446 16.8403 6.31233 16.9734 6.28197 17.1689L5.9561 19.2453C4.39638 18.9043 3.27056 18.2232 2.60364 17.2171C2.78041 16.7707 3.33305 15.4905 4.11158 14.7817ZM2.77505 22.2369C2.47954 20.8255 2.78041 19.4078 2.98933 18.6811C3.49733 19.0918 4.108 19.4212 4.81957 19.6676C4.73118 20.1916 4.61244 21.2406 4.90349 21.9824C5.30346 23.0055 6.77391 23.6456 6.93997 23.7152C7.02836 23.7527 7.12924 23.7527 7.21674 23.7152C7.51136 23.592 8.39255 23.3385 8.93002 23.6438C9.22822 23.8134 9.34249 24.2116 9.37731 24.5714C8.94877 24.3723 8.56219 24.3035 8.53005 24.2982C8.3372 24.2651 8.15239 24.3955 8.11936 24.5901C8.08632 24.7838 8.21667 24.9686 8.41041 25.0016C8.72468 25.057 9.58801 25.3195 9.80496 25.8738C9.92192 26.1729 9.84335 26.7425 9.46659 27.2094C9.27018 27.454 8.83538 27.8468 8.13632 27.7352C6.79623 27.52 5.92932 25.5346 5.92128 25.515C5.88557 25.4319 5.8195 25.365 5.73737 25.3284C5.71147 25.3168 3.18128 24.1759 2.77505 22.2369ZM3.38394 27.4049C3.23752 27.2718 3.01165 27.2826 2.87862 27.429C2.74648 27.5745 2.7572 27.8003 2.90362 27.9334C2.93576 27.9628 3.13574 28.1423 3.45894 28.4047C2.52507 28.71 1.08409 29.002 0.760002 28.2735C0.41806 27.5066 2.10456 25.7971 3.52947 24.7142C4.25264 25.3686 5.02223 25.7765 5.32221 25.9229C5.43203 26.1524 5.69183 26.6523 6.08734 27.1487C5.6088 27.52 5.2865 28.0574 5.12758 28.7529C4.10354 28.0512 3.39912 27.4183 3.38394 27.4049ZM12.4539 30.2259C11.5352 30.5499 10.5647 30.6838 9.56123 30.6231C8.29524 30.5473 6.9114 29.8813 5.77397 29.1751C5.87753 28.4833 6.14002 27.9887 6.57303 27.6754C6.95336 28.0289 7.41315 28.3199 7.94437 28.4244L9.63533 29.5028C9.69426 29.5403 9.76032 29.5581 9.82728 29.5581C9.90139 29.5581 9.9746 29.5358 10.0371 29.4903C10.971 28.8136 11.7495 28.461 12.4539 28.3976V30.2259ZM23.2309 31.4328H18.5562V27.2835H23.2309V31.4328ZM29.2921 23.9688C27.7699 24.6338 26.0209 24.9026 24.821 25.0106C24.3335 25.0552 23.9032 24.7097 23.8389 24.2259C23.7755 23.7563 24.0907 23.3126 24.5558 23.2153C24.7344 23.1787 24.9147 23.1385 25.0906 23.0975C25.2076 23.0698 25.3031 22.985 25.3442 22.8725C25.3852 22.7591 25.3674 22.6332 25.2951 22.5368C25.154 22.3467 24.7683 21.7146 24.8451 21.3129C24.8674 21.1986 24.9263 21.1174 25.0352 21.0504C25.4977 20.7665 26.6593 21.5646 27.2976 22.1931C27.4021 22.2958 27.5583 22.3244 27.6913 22.2663C27.9681 22.1449 28.2252 22.0173 28.4547 21.886C29.8171 21.1102 30.7795 20.0961 31.2536 19.531C31.7045 20.2318 32.2794 20.8317 32.9722 21.3272C32.4598 21.8896 31.175 23.1457 29.2921 23.9688ZM35.4328 20.913L36.4193 20.1024C36.572 19.9774 36.5943 19.7524 36.4685 19.5998C36.3435 19.4471 36.1185 19.4257 35.9658 19.5507L34.0204 21.1486C32.8017 20.4719 31.9411 19.5346 31.3973 18.2919C31.8429 17.4599 32.824 15.803 33.707 14.8817C33.7106 14.8781 33.7142 14.8746 33.7177 14.871C33.9579 14.6219 34.19 14.4273 34.4025 14.3193C34.7712 14.1318 35.2364 14.0265 35.7846 14.0033C35.8578 14.2818 35.9988 14.5398 36.1944 14.7647C35.8328 15.0977 35.6319 15.5137 35.6319 15.9512C35.6319 16.7448 36.2667 17.4108 37.1952 17.7009C37.0515 18.1919 36.9015 19.0614 37.2595 19.9345C37.7773 21.1977 39.62 22.2761 39.6977 22.3217C39.7531 22.3538 39.8147 22.3699 39.8772 22.3699C39.9272 22.3699 39.9781 22.3592 40.0254 22.3377C40.1307 22.2895 40.2057 22.1931 40.228 22.0797C40.2736 21.8396 40.6673 19.7087 40.403 18.7526C40.2593 18.2321 39.9754 17.8197 39.729 17.5384C40.1557 17.3313 40.4896 17.035 40.6852 16.6832C41.6619 18.1214 42.385 20.2675 42.9734 22.2744C41.0458 23.4644 38.8969 24.0268 36.5809 23.9491L35.4328 20.913ZM31.4411 30.2491C31.1366 29.0091 32.233 27.886 33.324 27.1067C33.5758 27.4665 33.932 27.9289 34.3847 28.4003C33.5954 29.5001 33.3856 30.6696 33.7597 31.889C32.4945 31.531 31.6259 30.9999 31.4411 30.2491ZM43.143 31.4936C43.3073 31.5748 43.4091 31.7391 43.4091 31.923C43.4091 32.1747 43.2127 32.3854 42.9618 32.4015C40.0986 32.5952 36.8997 32.5577 34.5936 32.089C34.0918 30.9169 34.2213 29.8322 34.9882 28.7832L37.18 29.4564C37.313 29.4974 37.4586 29.4564 37.5523 29.3519C37.5586 29.3448 38.1889 28.6458 39.1147 28.685C39.8709 28.7181 40.3762 29.2769 40.9119 29.8688C41.036 30.0063 41.1646 30.1482 41.2958 30.2821C41.7663 30.7633 42.5599 31.2061 43.143 31.4936ZM43.6957 29.1939C43.4769 29.2805 42.9564 29.4724 42.2618 29.6447C42.7806 28.2655 42.9377 26.7282 42.727 25.0632C42.7029 24.8677 42.5252 24.7294 42.3279 24.7535C42.1324 24.7785 41.994 24.957 42.019 25.1525C42.2199 26.7469 42.0618 28.2092 41.5485 29.5072C41.5128 29.468 41.478 29.4296 41.4414 29.3894C40.9458 28.8413 40.3932 28.2324 39.5888 28.036L40.0066 26.6148C40.0629 26.4255 39.9548 26.2274 39.7656 26.172C39.5763 26.1158 39.3772 26.2238 39.3218 26.413L38.8612 27.9771C38.0585 28.0342 37.4639 28.4663 37.188 28.7118L36.1122 28.3815L37.4684 26.1425C37.5711 25.9738 37.5166 25.7542 37.3488 25.6515C37.18 25.5498 36.9604 25.6033 36.8577 25.7721L35.4078 28.1646L35.0462 28.0539C34.3873 27.3977 33.9204 26.7291 33.6856 26.3604L36.4256 24.6571C36.6202 24.6651 36.814 24.6704 37.0059 24.6704C39.2593 24.6704 41.3583 24.0875 43.2591 22.9359C43.5466 23.4938 44.1046 24.716 44.2537 26.0506C44.4215 27.5495 43.8733 28.8279 43.6957 29.1939Z" fill="#2C4059"/>
<path d="M32.216 7.86931C32.0491 7.76576 31.8286 7.81753 31.725 7.98537C31.6277 8.14338 31.5143 8.27907 31.3848 8.39602C31.2625 8.32014 31.1179 8.27461 30.9625 8.27461C30.5215 8.27461 30.1635 8.63259 30.1635 9.07449C30.1635 9.5155 30.5215 9.87348 30.9625 9.87348C31.4045 9.87348 31.7625 9.5155 31.7625 9.07449C31.7625 9.05396 31.7607 9.03432 31.7598 9.01468C31.9821 8.83435 32.175 8.61652 32.3321 8.3612C32.4366 8.19337 32.3839 7.97287 32.216 7.86931Z" fill="#2C4059"/>
<path d="M13.4833 10.9412C13.8699 10.9412 14.1824 10.6278 14.1824 10.2413C14.1824 9.85473 13.8699 9.54138 13.4833 9.54138C13.0967 9.54138 12.7834 9.85473 12.7834 10.2413C12.7834 10.6278 13.0967 10.9412 13.4833 10.9412Z" fill="#2C4059"/>
<path d="M11.537 12.4713C12.2717 12.4713 12.7806 11.8795 12.8012 11.8545C12.9279 11.7045 12.9092 11.4813 12.7601 11.3537C12.611 11.226 12.386 11.2438 12.2575 11.392C12.2539 11.3956 11.9369 11.7572 11.537 11.7572C11.1415 11.7572 10.8254 11.4019 10.8174 11.392C10.6897 11.243 10.4656 11.2242 10.3156 11.3519C10.1647 11.4786 10.146 11.7045 10.2728 11.8545C10.2942 11.8795 10.8022 12.4713 11.537 12.4713Z" fill="#2C4059"/>
<path d="M9.7801 10.5657C10.0535 10.2924 10.0535 9.84923 9.7801 9.5759C9.50676 9.30258 9.06357 9.30258 8.79023 9.5759C8.51688 9.84923 8.51688 10.2924 8.79023 10.5657C9.06357 10.839 9.50676 10.839 9.7801 10.5657Z" fill="#2C4059"/>
</svg>
