<svg width="25" height="35" viewBox="0 0 25 35" fill="none" xmlns="http://www.w3.org/2000/svg">
<path d="M23.3893 26.454L16.4974 22.6818L16.4445 22.0179C16.4388 21.9479 16.4192 21.8797 16.3869 21.8174C16.3545 21.7551 16.3101 21.6998 16.2562 21.6549C16.2005 21.5144 16.1132 21.3887 16.0012 21.2873C15.6675 21.0306 15.2597 20.8888 14.8387 20.883C14.8387 20.6877 14.8387 20.4925 14.8502 20.311C17.3979 19.5 17.8528 17.1407 18.3329 14.6435L18.3766 14.4138C19.1921 13.7843 20.5429 12.6356 20.8071 11.7167C21.0713 10.7978 20.9955 10.0764 20.5935 9.54575C20.3232 9.19794 19.9409 8.95441 19.5114 8.85655C19.5114 8.67966 19.5114 8.49358 19.5114 8.29601C19.5395 8.25724 19.5649 8.21655 19.5873 8.17425C19.9744 7.45676 20.1677 6.65064 20.1478 5.83558C20.1484 5.22775 19.9636 4.6342 19.6179 4.13421C19.2723 3.63422 18.7823 3.2516 18.2135 3.03745L18.0825 2.98691C17.9721 2.71976 17.8367 2.46362 17.6782 2.2219C16.603 0.579325 13.9841 -0.282169 11.1676 0.0831046C7.61595 0.542568 4.84539 2.78245 3.75646 6.06991C3.70761 6.21628 3.692 6.3717 3.71076 6.52487C3.72952 6.67803 3.78218 6.82509 3.86491 6.95535C3.94764 7.0856 4.05836 7.19579 4.18902 7.27788C4.31968 7.35997 4.467 7.41191 4.62025 7.42992C4.47782 8.25695 4.56741 8.91169 4.89823 9.46764C4.78233 9.5532 4.68208 9.65812 4.60187 9.77778C4.2389 10.3016 4.24809 11.0827 4.62944 12.1004C4.9212 12.8814 6.18013 13.9152 7.19784 14.655C7.68027 16.8305 8.30514 19.0199 10.0902 20.0307C10.149 20.2718 10.1912 20.5167 10.2165 20.7635C9.81346 20.777 9.42503 20.9177 9.10691 21.1656C8.99492 21.267 8.90768 21.3927 8.8519 21.5331C8.79838 21.5783 8.75437 21.6336 8.72243 21.6959C8.69048 21.7583 8.67124 21.8263 8.66582 21.8961L8.58312 22.923L1.47293 26.3828C1.13962 26.5434 0.84432 26.7732 0.606662 27.0568C0.369004 27.3404 0.194429 27.6714 0.0945387 28.0276C-0.0031899 28.378 -0.0254649 28.7451 0.0291853 29.1047C0.0838355 29.4642 0.214167 29.8081 0.411568 30.1136C1.72793 32.1421 4.54674 34.5222 10.5198 34.9793L11.7833 28.1081L11.48 27.1891L12.2473 25.604H12.971L13.7383 27.1891L13.435 28.1081L14.7032 35C20.8462 34.5405 23.4146 32.0273 24.4805 29.8862C24.7827 29.2849 24.8377 28.5892 24.6338 27.9479C24.4299 27.3066 23.9832 26.7704 23.3893 26.454ZM19.3736 11.9464L19.5344 10.4049C19.5468 10.2735 19.5468 10.1412 19.5344 10.0098C19.6138 10.0543 19.6834 10.1145 19.7389 10.1867C19.9686 10.4991 19.8905 11.0344 19.7779 11.4295C19.6819 11.6749 19.5373 11.8984 19.3529 12.0866C19.3713 12.0406 19.3736 11.9924 19.3736 11.9464ZM15.2614 22.0408C15.228 22.1096 15.188 22.175 15.142 22.2361C15.0793 22.1553 15.0325 22.0633 15.0041 21.965C15.0933 21.977 15.18 22.0026 15.2614 22.0408ZM18.4777 10.0121C18.4892 10.0998 18.4892 10.1886 18.4777 10.2763L18.31 11.8523V11.8913C18.3087 12.1139 18.2193 12.3269 18.0613 12.4837C17.9032 12.6405 17.6894 12.7281 17.4668 12.7275H15.3993C15.2879 12.7284 15.1774 12.7072 15.0743 12.6651C14.9712 12.623 14.8775 12.5607 14.7986 12.4821C14.7197 12.4034 14.6573 12.3099 14.6149 12.2069C14.5725 12.1039 14.5509 11.9935 14.5515 11.8821L14.3838 10.274C14.3722 10.1817 14.3722 10.0883 14.3838 9.99602C14.4181 9.79754 14.5198 9.61695 14.6717 9.4847C14.8236 9.35246 15.0165 9.27665 15.2178 9.27007H17.6529C17.8564 9.27778 18.0509 9.35603 18.2031 9.49141C18.3552 9.62679 18.4555 9.81087 18.4868 10.0121H18.4777ZM7.48041 6.66262C12.9434 4.6249 13.1732 8.3006 16.3641 6.75221C17.0786 6.92451 17.5381 7.64816 17.7425 8.33276C17.7104 8.33276 17.6805 8.36722 17.6483 8.36722H15.2086C14.9021 8.36381 14.5994 8.43475 14.3264 8.57398C13.8317 8.28073 13.2657 8.12968 12.6907 8.13749C12.1261 8.13113 11.5703 8.27801 11.0826 8.5625C10.8148 8.43046 10.5196 8.36355 10.2211 8.36722H7.78825C7.52153 8.35468 7.25521 8.39932 7.00716 8.49817C7.0939 7.87018 7.25269 7.25426 7.48041 6.66262ZM5.61269 11.7305C5.2635 10.7978 5.40823 10.4647 5.46107 10.3843C5.49193 10.339 5.53608 10.3045 5.58742 10.2855L5.65864 10.3199C5.74134 10.3889 5.82634 10.4555 5.91594 10.5244L6.06756 11.9373C6.06994 12.0925 6.09155 12.2468 6.13188 12.3967C5.91781 12.2099 5.74156 11.9837 5.61269 11.7305ZM7.12203 11.8959L6.95202 10.2878C6.94027 10.1955 6.94027 10.1021 6.95202 10.0098C6.98587 9.81114 7.08741 9.6303 7.23941 9.49798C7.39142 9.36566 7.58452 9.29001 7.78595 9.28385H10.2303C10.4318 9.29096 10.6247 9.36725 10.7766 9.49988C10.9285 9.6325 11.03 9.81339 11.0642 10.0121C11.0759 10.1005 11.0759 10.1901 11.0642 10.2786L10.8988 11.8545V11.8936C10.8985 12.0044 10.8763 12.1141 10.8335 12.2163C10.7907 12.3185 10.7281 12.4112 10.6493 12.4891C10.5705 12.567 10.4771 12.6286 10.3745 12.6703C10.2718 12.712 10.1619 12.733 10.0511 12.7321H7.98352C7.87217 12.7346 7.76145 12.7147 7.65786 12.6738C7.55428 12.6329 7.45991 12.5717 7.3803 12.4938C7.3007 12.4159 7.23745 12.3229 7.19428 12.2202C7.15111 12.1175 7.12889 12.0073 7.12892 11.8959H7.12203ZM8.18109 14.2323C8.15331 14.1043 8.07876 13.9912 7.97203 13.9152L7.81811 13.8096C7.86636 13.8096 10.0419 13.8096 10.0419 13.8096C10.5408 13.8103 11.0201 13.6158 11.3773 13.2676C11.7345 12.9193 11.9413 12.4452 11.9533 11.9464L12.1164 10.4049C12.1679 10.016 12.0913 9.62081 11.8981 9.27926C12.1539 9.1874 12.4236 9.14075 12.6953 9.14142C12.9824 9.13687 13.2677 9.18676 13.5361 9.28845C13.3497 9.62896 13.278 10.0205 13.3317 10.4049L13.4948 11.9671C13.5025 12.4703 13.7054 12.9507 14.0608 13.3069C14.4162 13.6632 14.8961 13.8673 15.3993 13.8762H17.4668C17.3906 14.0692 17.3336 14.2693 17.2968 14.4735C16.6926 17.6645 16.3182 19.5735 12.6057 19.5735C9.57096 19.5735 8.8565 17.3497 8.17879 14.2323H8.18109ZM10.1729 21.8249C10.1445 21.9569 10.0949 22.0834 10.0258 22.1994C9.95502 22.1114 9.89416 22.0158 9.84434 21.9145C9.94774 21.8656 10.0589 21.8352 10.1729 21.8249ZM10.6254 26.9089L9.51813 24.3588L9.58015 23.6007L9.63759 23.5732C9.81742 23.9475 10.0714 24.2815 10.3842 24.5547C10.6969 24.828 11.0619 25.0349 11.4571 25.1629L10.6254 26.9089ZM12.0038 24.2095C11.5444 23.8075 11.1125 23.3848 10.7495 23.008C11.1162 22.5407 11.3065 21.9591 11.2871 21.3654C11.288 21.3517 11.288 21.3379 11.2871 21.3241C11.2921 21.2875 11.2921 21.2504 11.2871 21.2138C11.2859 20.9625 11.2682 20.7116 11.2342 20.4626C11.6868 20.5626 12.1492 20.6111 12.6126 20.6073C13.0065 20.6105 13.4001 20.5883 13.7911 20.5407C13.7268 21.9788 14.0944 22.6795 14.4574 23.0218C14.1541 23.3296 13.7957 23.6673 13.4121 24.0073C12.9766 24.2319 12.479 24.3062 11.9969 24.2187L12.0038 24.2095ZM14.5056 26.9984L13.6832 25.1606L14.0209 24.878C14.5555 24.5649 15.0113 24.1334 15.3533 23.6168L15.5118 23.4445L15.5968 24.4875L14.5056 26.9984Z" fill="#2C4059"/>
</svg>
