<?xml version="1.0" encoding="iso-8859-1"?>
<!-- Uploaded to: SVG Repo, www.svgrepo.com, Generator: SVG Repo Mixer Tools -->
<svg fill="#000000" height="800px" width="800px" version="1.1" id="Layer_1" xmlns="http://www.w3.org/2000/svg" xmlns:xlink="http://www.w3.org/1999/xlink" 
	 viewBox="0 0 511.744 511.744" xml:space="preserve">
<g>
	<g>
		<polygon points="295.004,289.895 290.004,289.895 290.004,324.029 295.004,324.029 312.071,306.962 		"/>
	</g>
</g>
<g>
	<g>
		<path d="M319.137,324.029h29.03c-0.708-4.395-1.374-8.721-2.022-12.979c-1.135-7.39-2.227-14.481-3.439-21.154h-23.569
			l11.034,11.034c3.337,3.337,3.337,8.73,0,12.066L319.137,324.029z"/>
	</g>
</g>
<g>
	<g>
		<path d="M169.035,289.895c-1.212,6.673-2.304,13.764-3.439,21.154c-0.648,4.258-1.314,8.585-2.022,12.979h58.163v-34.133H169.035z
			"/>
	</g>
</g>
<g>
	<g>
		<path d="M238.804,281.362v51.2h34.133v-51.2H238.804z M264.405,315.495c0,4.719-3.814,8.533-8.533,8.533s-8.533-3.814-8.533-8.533
			v-17.067c0-4.719,3.814-8.533,8.533-8.533s8.533,3.814,8.533,8.533V315.495z"/>
	</g>
</g>
<g>
	<g>
		<path d="M185.337,383.762h-45.201c-4.173,22.263-8.073,46.046-10.308,68.267h6.579c16.922-0.734,32.956-9.908,42.513-24.534
			C187.48,414.405,189.699,399.053,185.337,383.762z"/>
	</g>
</g>
<g>
	<g>
		<path d="M230.271,349.629c-4.718,0-8.533-3.815-8.533-8.534H153.47c-0.691,0-1.314-0.273-1.971-0.435
			c-0.819,0.375-1.852,0.469-2.859,0.597c-1.647,7.834-3.413,16.444-5.214,25.438h48.034c3.524,0,6.682,2.167,7.962,5.453
			c8.533,22.008,6.272,45.577-6.221,64.691c-12.553,19.217-33.655,31.275-56.431,32.247l-8.354,0.008
			c-0.35,5.914-0.546,11.631-0.546,17.067c0,3.234,1.826,6.187,4.719,7.637c33.152,16.572,80.307,17.843,114.748,17.946V349.629
			H230.271z"/>
	</g>
</g>
<g>
	<g>
		<path d="M371.588,383.762h-45.184c-4.361,15.292-2.142,30.643,6.417,43.733c9.557,14.626,25.591,23.799,42.88,24.542h6.246
			C379.788,430.576,375.999,407.22,371.588,383.762z"/>
	</g>
</g>
<g>
	<g>
		<path d="M494.631,459.085c-4.796-23.33-10.914-55.569-18.005-92.911c-36.028-189.602-55.663-282.197-69.828-295.578
			c-9.387-8.858-37.154-18.978-50.449-23.484c-2.116-6.775-5.777-13.09-11.051-18.185c-7.057-6.886-15.846-15.454-26.496-19.763
			c-0.017-0.008-0.043-0.008-0.06-0.017c-0.026-0.009-0.051-0.034-0.077-0.043C306.863,4.574,282.876,0,255.867,0
			c-27.008,0-50.987,4.574-62.788,9.105c-0.026,0.009-0.051,0.034-0.077,0.043c-0.026,0.009-0.043,0.009-0.068,0.017
			c-10.65,4.309-19.43,12.877-26.709,19.985c-5.18,5.001-8.781,11.247-10.872,17.971c-13.303,4.514-41.028,14.618-50.406,23.467
			v0.009C90.781,83.968,71.147,176.563,35.118,366.165c-7.091,37.342-13.218,69.581-18.005,92.911
			c-0.478,2.313,0.026,4.702,1.382,6.63c1.348,1.92,3.439,3.209,5.769,3.541l59.733,8.533c4.531,0.657,8.789-2.423,9.609-6.938
			c10.65-59.025,39.305-215.253,43.955-229.214c2.953-8.841,9.122-24.209,14.413-37.026c5.495,21.623,9.011,45.662,9.788,67.823
			l-0.077,0.41c-0.077,0-0.136,0.034-0.213,0.043c0.009,0.017,0.009,0.026,0.017,0.043c0.171-0.026,0.333-0.094,0.512-0.094h59.733
			c0-4.719,3.823-8.533,8.533-8.533h17.067v-35.157c2.918,0.811,5.777,1.263,8.533,1.263c2.765,0,5.615-0.452,8.533-1.263v35.157
			h17.067c4.719,0,8.533,3.814,8.533,8.533h59.733c0.307,0,0.58,0.094,0.87,0.154c0.009-0.009,0.009-0.017,0.017-0.026
			c-0.188-0.043-0.367-0.111-0.563-0.119l-0.077-0.401c0.777-22.178,4.301-46.208,9.788-67.831
			c5.291,12.826,11.46,28.194,14.413,37.035c4.651,13.961,33.306,170.189,43.955,229.214c0.819,4.514,5.026,7.595,9.609,6.938
			l59.733-8.533c2.321-0.333,4.42-1.621,5.768-3.541C494.605,463.787,495.108,461.397,494.631,459.085z M255.867,17.067
			c20.07,0,38.366,2.731,49.869,5.811L300.079,51.2h-88.414l-5.658-28.322C217.51,19.797,235.806,17.067,255.867,17.067z
			 M176.166,76.663c-1.126-1.357-2.074-2.85-2.876-4.429c-0.094-0.179-0.179-0.367-0.273-0.555
			c-1.562-3.243-2.466-6.835-2.603-10.539c-0.009-0.068,0-0.137-0.009-0.205c-0.051-1.826,0.077-3.669,0.393-5.495
			c0.964-5.325,3.499-10.368,7.56-14.293c3.448-3.362,7.373-7.194,11.52-10.419c2.347,12.672,6.434,32.836,12.169,54.622
			c-1.801,0-3.627,0-5.854-0.026c-1.886-0.009-3.661-0.222-5.385-0.521c-0.435-0.077-0.862-0.171-1.28-0.265
			c-1.536-0.341-3.021-0.776-4.403-1.357c-0.145-0.051-0.299-0.085-0.435-0.154c-1.493-0.649-2.867-1.476-4.164-2.398
			c-0.299-0.205-0.58-0.427-0.862-0.648C178.402,78.993,177.207,77.918,176.166,76.663z M188.317,157.602l-4.395-4.907
			c-2.722-3.081-4.326-6.852-4.685-10.906c-0.119-1.348-0.102-2.731,0.06-4.13c0.171-1.459,0.486-2.884,0.956-4.258
			c1.391-4.113,4.07-7.748,7.74-10.368l20.48-15.078c1.417,4.608,2.927,9.182,4.489,13.705c8.909,26.12,18.398,44.86,28.407,56.09
			c0.077,0.094,0.154,0.171,0.23,0.256c1.826,2.031,3.669,3.857,5.538,5.385c0.068,0.06,0.128,0.137,0.196,0.196v27.424
			C228.68,202.529,201.143,171.895,188.317,157.602z M260.553,163.029c-0.06,0.085-0.128,0.154-0.188,0.239
			c-1.399,1.843-2.807,3.473-4.224,4.881c-0.06,0.051-0.12,0.128-0.179,0.179c-0.034,0.034-0.068,0.051-0.102,0.085
			c-13.542-13.065-27.904-48.623-40.38-100.147h80.785c-1.485,6.118-2.995,11.989-4.523,17.638
			C283.098,117.427,272.217,147.507,260.553,163.029z M327.377,153.207l-3.959,4.403c-0.819,0.913-1.715,1.92-2.654,2.961
			c-0.393,0.435-0.836,0.913-1.246,1.374c-0.64,0.708-1.28,1.417-1.963,2.167c-0.418,0.461-0.862,0.947-1.297,1.425
			c-0.751,0.819-1.519,1.664-2.313,2.526c-0.427,0.452-0.862,0.922-1.297,1.391c-0.853,0.93-1.741,1.877-2.637,2.833
			c-0.401,0.427-0.802,0.845-1.203,1.28c-1.092,1.152-2.21,2.33-3.354,3.507c-0.222,0.23-0.435,0.461-0.657,0.691
			c-5.82,6.016-12.126,12.22-18.398,17.732l-0.085,0.077c-1.553,1.365-3.115,2.688-4.651,3.959
			c-0.017,0.009-0.034,0.026-0.051,0.034c-6.093,5.001-11.989,9.079-17.212,11.443v-27.426c0.068-0.06,0.137-0.137,0.205-0.196
			c1.86-1.527,3.712-3.354,5.538-5.385c0.077-0.085,0.154-0.162,0.23-0.256c10.01-11.23,19.499-29.969,28.399-56.09
			c1.562-4.523,3.072-9.097,4.497-13.705l20.582,15.155c4.787,3.413,7.919,8.721,8.593,14.549
			C333.085,143.249,331.447,148.591,327.377,153.207z M341.337,61.03v0.051c-0.128,3.721-1.05,7.339-2.611,10.59
			c-0.094,0.196-0.179,0.384-0.273,0.572c-0.811,1.57-1.749,3.063-2.876,4.42c-1.033,1.246-2.227,2.321-3.482,3.302
			c-0.299,0.239-0.597,0.469-0.905,0.691c-1.28,0.905-2.637,1.715-4.105,2.364c-0.205,0.085-0.427,0.145-0.631,0.222
			c-1.314,0.538-2.714,0.956-4.164,1.289c-0.469,0.102-0.947,0.205-1.434,0.29c-1.707,0.29-3.456,0.503-5.308,0.512
			c-2.227,0.017-4.062,0.017-5.854,0.017c5.726-21.777,9.805-41.95,12.169-54.622c4.181,3.268,8.192,7.177,11.81,10.709
			c3.806,3.678,6.263,8.482,7.245,13.619c0.008,0.077,0,0.145,0.008,0.222C341.27,57.19,341.405,59.119,341.337,61.03z"/>
	</g>
</g>
<g>
	<g>
		<path d="M383.316,469.094h-7.978v0.001c-23.142-0.981-44.245-13.039-56.798-32.256c-12.493-19.115-14.754-42.684-6.221-64.691
			c1.28-3.285,4.437-5.453,7.962-5.453h48c-1.715-8.636-3.473-17.22-5.24-25.668c-0.461-0.188-0.819-0.469-1.22-0.717
			c-1.101,0.503-2.304,0.785-3.55,0.785h-68.267c0,4.719-3.814,8.533-8.533,8.533h-17.067v162.116
			c34.441-0.102,81.596-1.374,114.748-17.946c2.893-1.451,4.719-4.403,4.719-7.637C383.871,480.717,383.658,474.991,383.316,469.094
			z"/>
	</g>
</g>
</svg>