<svg xmlns="http://www.w3.org/2000/svg" version="1.1" viewBox="-5.0 -10.0 110.0 135.0">
 <path d="m87.562 74.797c-5.6875-4.9688-10.812-10.578-15.234-16.688-2.125-2.9375-4.1094-6.0156-5.9062-9.1562-1.9688-3.4531-2.9844-7.2031-3.0156-10.969v-0.015625-0.015625c0-0.85938 0.015625-1.7031 0.10938-2.5625 0.48438-4.3281 2.2656-8.0625 3.2812-9.8906 1.3281-2.4062-0.046875-4.3438-0.71875-5.2812l-0.17188-0.25c-0.625-0.92188-1.4375-1.5938-2.3281-2.0625v-5.5156c0-2.5156-2.0469-4.5781-4.5781-4.5781-1.2344 0-2.3906 0.48438-3.2031 1.3281-0.875 0.85938-1.3594 2-1.3594 3.2344v5.2344c-1.9844 0.82812-3.4688 2.1094-4.4531 3.2188-1-1.1094-2.4844-2.3906-4.4531-3.2188v-5.2344c0-1.2344-0.48438-2.3906-1.3281-3.2031-0.85938-0.875-2-1.3594-3.2344-1.3594-2.5156 0-4.5781 2.0469-4.5781 4.5781v5.5156c-0.875 0.46875-1.6875 1.125-2.3281 2.0625l-0.17188 0.25c-0.67188 0.9375-2.0469 2.875-0.71875 5.2812 1.0156 1.8438 2.7969 5.5625 3.2812 9.8906 0.09375 0.85938 0.125 1.7031 0.10938 2.5625v0.03125 0.015625c-0.046875 3.7812-1.0469 7.5312-3.0156 10.969-1.7969 3.1562-3.7812 6.2344-5.9062 9.1562-4.4219 6.0938-9.5469 11.703-15.234 16.688-0.39062 0.34375-0.57812 0.85938-0.51562 1.3594 0.0625 0.51562 0.375 0.96875 0.84375 1.2031l9.8281 5.0469c-0.29688 0.42188-0.60938 0.82812-0.92188 1.25-0.46875 0.625-0.40625 1.5 0.14062 2.0469 0.26562 0.26562 6.7188 6.4844 28.188 6.4844s27.922-6.2188 28.188-6.4844c0.54688-0.54688 0.60938-1.4219 0.14062-2.0469-0.3125-0.42188-0.60938-0.82812-0.92188-1.25l9.8281-5.0469c0.45312-0.23438 0.78125-0.6875 0.84375-1.2031s-0.125-1.0312-0.51562-1.3594zm-37.562-32.375h-10.734c0.1875-0.95312 0.3125-1.9219 0.375-2.8906h20.703c0.0625 0.96875 0.20312 1.9375 0.375 2.8906h-10.734zm8.0312-31.062c0.26562-0.26562 0.60938-0.42188 1-0.42188 0.79688 0 1.4531 0.65625 1.4531 1.4531v4.5312c-1.25-0.17188-2.3438-0.125-2.8906-0.078125v-4.4375c0-0.39062 0.14062-0.73438 0.45312-1.0312zm-18.5 1.0312c0-0.79688 0.65625-1.4531 1.4531-1.4531 0.39062 0 0.73438 0.14062 1.0312 0.45312 0.26562 0.26562 0.42188 0.60938 0.42188 1v4.4375c-0.5625-0.046875-1.6406-0.09375-2.8906 0.078125v-4.5312zm-3.6094 11.578c-0.32812-0.59375-0.15625-0.98438 0.53125-1.9531l0.21875-0.3125c1.4688-2.1719 5.4688-1.7656 5.6406-1.75 0.35938 0.03125 0.6875 0.125 1.0156 0.20312 0.125 0.0625 0.25 0.078125 0.375 0.09375 2.7812 0.875 4.4688 3.1875 4.9688 3.9688l0.015625 0.015625c0.0625 0.078125 0.14062 0.14062 0.21875 0.21875s0.14062 0.15625 0.23438 0.21875l0.015625 0.015625c0.0625 0.046875 0.14062 0.046875 0.20312 0.078125 0.10938 0.046875 0.21875 0.10938 0.34375 0.14062 0.09375 0.015625 0.1875 0 0.28125 0h0.3125c0.10938-0.015625 0.21875-0.078125 0.3125-0.125 0.078125-0.03125 0.15625-0.046875 0.23438-0.09375l0.015625-0.015625c0.078125-0.046875 0.14062-0.14062 0.21875-0.20312 0.078125-0.078125 0.17188-0.14062 0.21875-0.23438l0.015625-0.015625c0.5-0.78125 2.1875-3.0938 4.9688-3.9688 0.125-0.03125 0.26562-0.046875 0.375-0.09375 0.32812-0.078125 0.65625-0.17188 1.0156-0.20312 0.17188-0.015625 4.1719-0.42188 5.6406 1.75l0.21875 0.3125c0.6875 0.96875 0.84375 1.3594 0.53125 1.9531-1.3906 2.5-3.1406 6.4375-3.6562 11.062-0.046875 0.45312-0.078125 0.90625-0.09375 1.3594h-20.656c-0.03125-0.45312-0.046875-0.90625-0.09375-1.3594-0.51562-4.625-2.2656-8.5625-3.6562-11.062zm39.672 55.875c-3-4.4062-5.6562-9.0469-9.1719-15.531-2.5-4.6094-4.7969-9.4062-6.8594-14.266-0.32812-0.79688-1.25-1.1562-2.0469-0.82812-0.79688 0.34375-1.1719 1.25-0.82812 2.0469 2.0938 4.9531 4.4375 9.8438 6.9844 14.531 4.2656 7.9062 7.2969 13.109 11.219 18.484-2.4844 1.5312-9.5938 4.7969-24.891 4.7969s-22.406-3.2656-24.891-4.7812c3.9219-5.3594 6.9375-10.578 11.219-18.484 2.5469-4.7188 4.9062-9.6094 6.9844-14.531 0.32812-0.79688-0.03125-1.7188-0.82812-2.0469-0.79688-0.34375-1.7188 0.03125-2.0469 0.82812-2.0469 4.8438-4.3438 9.6406-6.8594 14.266-3.5156 6.5-6.1719 11.141-9.1719 15.531l-8.2031-4.2188c5.1875-4.7344 9.8906-10 14-15.672 2.1875-3.0156 4.2344-6.1875 6.0781-9.4375 0.90625-1.5938 1.625-3.2656 2.1875-4.9531h23.062c0.54688 1.7031 1.2656 3.3594 2.1875 4.9531 1.8438 3.25 3.8906 6.4219 6.0781 9.4375 4.1094 5.6719 8.8125 10.938 14 15.672l-8.2031 4.2188z"/>
<text x="0.0" y="117.5" font-size="5.0" font-weight="bold" font-family="Arbeit Regular, Helvetica, Arial-Unicode, Arial, Sans-serif" fill="#000000">Created by Yosua Bungaran</text><text x="0.0" y="122.5" font-size="5.0" font-weight="bold" font-family="Arbeit Regular, Helvetica, Arial-Unicode, Arial, Sans-serif" fill="#000000">from Noun Project</text></svg>