<svg width="30" height="30" viewBox="0 0 30 30" fill="none" xmlns="http://www.w3.org/2000/svg">
<path d="M28.6478 11.1133L28.6425 11.1232L28.6374 11.1333C28.4899 11.4239 28.1969 11.6059 27.8559 11.6059H2.14384C1.8031 11.6059 1.51019 11.4241 1.36259 11.1332L1.35751 11.1232L1.35224 11.1133C1.19736 10.8212 1.22019 10.469 1.40883 10.2015L1.41116 10.1981L7.08906 2.08822L7.08911 2.08814C7.4552 1.56516 8.05862 1.25 8.70056 1.25H21.2994C21.9414 1.25 22.5448 1.56516 22.9109 2.08814L22.9109 2.08822L28.5888 10.1981L28.5911 10.2014C28.7798 10.4691 28.8026 10.8213 28.6478 11.1133Z" stroke="#EA5454" stroke-width="2.5"/>
<path d="M23.5705 28.7473H21.9922V19.4447C21.9922 18.1941 21.4729 17.0605 20.639 16.2486H25.5345V26.7833C25.5345 27.8606 24.6479 28.7473 23.5705 28.7473ZM8.0075 19.4447V28.7473H6.42918C5.35185 28.7473 4.46518 27.8606 4.46518 26.7833V16.2486H9.36067C8.52678 17.0605 8.0075 18.1941 8.0075 19.4447Z" stroke="#EA5454" stroke-width="2.5"/>
<path d="M12.6502 28.7473V19.6234H17.3495V28.7473H12.6502Z" stroke="#EA5454" stroke-width="2.5"/>
</svg>
