<svg xmlns="http://www.w3.org/2000/svg" version="1.1" viewBox="-5.0 -10.0 110.0 135.0">
 <g>
  <path d="m12.5 43.75h75c2.3438 0 4.4688-1.2812 5.5312-3.375 1.0938-2.0625 0.9375-4.5625-0.40625-6.4688l-16.562-23.656c-1.75-2.5-4.625-4-7.6875-4h-36.75c-3.0625 0-5.9375 1.5-7.6875 4l-16.562 23.656c-1.3438 1.9062-1.5 4.4062-0.40625 6.4688 1.0625 2.0938 3.1875 3.375 5.5312 3.375z"/>
  <path d="m66.75 93.75h8.25c5.1562 0 9.375-4.2188 9.375-9.375v-34.375h-68.75v34.375c0 5.1562 4.2188 9.375 9.375 9.375h8.25v-30.781c0-5.1562 4.2188-9.375 9.375-9.375h14.75c5.1562 0 9.375 4.2188 9.375 9.375z"/>
  <path d="m42.625 59.844c-1.7188 0-3.125 1.4062-3.125 3.125v30.781h21v-30.781c0-1.7188-1.4062-3.125-3.125-3.125z"/>
 </g>
<text x="0.0" y="117.5" font-size="5.0" font-weight="bold" font-family="Arbeit Regular, Helvetica, Arial-Unicode, Arial, Sans-serif" fill="#000000">Created by Kiki Rizky</text><text x="0.0" y="122.5" font-size="5.0" font-weight="bold" font-family="Arbeit Regular, Helvetica, Arial-Unicode, Arial, Sans-serif" fill="#000000">from Noun Project</text></svg>