<?xml version="1.0" encoding="iso-8859-1"?>
<!-- Uploaded to: SVG Repo, www.svgrepo.com, Generator: SVG Repo Mixer Tools -->
<svg fill="#000000" height="800px" width="800px" version="1.1" id="Layer_1" xmlns="http://www.w3.org/2000/svg" xmlns:xlink="http://www.w3.org/1999/xlink" 
	 viewBox="0 0 512.245 512.245" xml:space="preserve">
<g>
	<g>
		<path d="M471.9,71.896c-1.28-4.587-5.44-7.68-10.24-7.787H50.674c-4.8,0-8.96,3.2-10.24,7.787
			c-68.693,239.36-29.44,349.547-27.733,354.133c1.493,3.84,5.013,6.613,9.173,6.933l187.733,15.147
			c3.093,0.213,6.187-0.853,8.32-3.093l38.187-37.867l38.187,37.867c2.027,1.92,4.693,3.093,7.467,3.093h0.853l187.733-15.147
			c4.16-0.32,7.68-2.987,9.173-6.933C501.233,421.443,540.487,311.256,471.9,71.896z M58.674,85.443h394.88
			c3.093,10.987,5.867,21.547,8.427,32H50.247C52.807,106.989,55.58,96.429,58.674,85.443z M481.394,412.27l-175.573,14.08
			l-26.667-26.453c43.413-8.853,70.4-43.093,70.507-92.373c0-5.44-3.733-10.347-9.173-10.987c-6.613-0.853-12.16,4.16-12.16,10.56
			c0,46.293-26.987,73.813-72.213,73.813c-45.227,0-72.213-27.52-72.213-73.6c0-5.653-4.267-10.453-9.92-10.88
			c-6.293-0.427-11.413,4.48-11.413,10.667c0,49.6,27.093,84.053,70.507,92.907l-26.667,26.453L30.833,412.27
			C24.646,388.803,7.9,299.95,45.126,138.777h421.867C504.327,300.056,487.474,388.91,481.394,412.27z"/>
	</g>
</g>
</svg>